<?xml version="1.0" encoding="utf-8"?>
<!-- Generator: Adobe Illustrator 25.0.0, SVG Export Plug-In . SVG Version: 6.00 Build 0)  -->
<svg version="1.1" id="Capa_1" xmlns="http://www.w3.org/2000/svg" xmlns:xlink="http://www.w3.org/1999/xlink" x="0px" y="0px"
	 viewBox="0 0 429.56 394.67" style="enable-background:new 0 0 429.56 394.67;" xml:space="preserve">
<style type="text/css">
	.st0{fill:#CA3541;}
	.st1{fill:#514F4C;}
	.st2{fill:#F8F0DF;}
	.st3{fill:#FEFBF3;}
	.st4{fill:#A71E29;}
	.st5{fill:#DF3E3E;}
	.st6{fill:#FE6161;}
	.st7{fill:#951B25;}
	.st8{fill:#961B25;}
	.st9{fill:#D34D52;}
	.st10{fill:#D64E51;}
	.st11{fill:#D34C50;}
	.st12{fill:#CC484F;}
	.st13{fill:#FAFAFA;}
	.st14{fill:#FE6262;}
</style>
<g>
	<path class="st0" d="M375.94,202.49c1.06,4.56,0.49,9.19,0.67,13.79c0.21,5.52,1.58,7.23,6.95,8.62c3.25,0.85,6.59,1.4,9.8,2.41
		c4.5,1.42,5.74,3.92,4.05,8.33c-1.28,3.36-3.04,6.54-4.47,9.86c-2.12,4.94-1.65,7.02,2.37,10.52c2.63,2.29,5.5,4.33,8.02,6.73
		c3.67,3.49,3.64,6.4-0.07,9.88c-2.64,2.47-5.6,4.58-8.31,6.97c-3.53,3.12-4.05,5.31-2.26,9.62c1.38,3.33,3.15,6.5,4.48,9.85
		c2.02,5.05,0.86,7.49-4.28,9.03c-3.21,0.97-6.55,1.51-9.8,2.4c-4.94,1.35-6.19,3.08-6.53,8.2c-0.28,4.21,0.76,8.48-0.55,12.64
		c-0.71,1.35,0.08,3.24-1.54,4.27c-3.51,2.11-7.04,0.6-10.55-0.01c-1.6-0.27-3.16-0.73-4.69-1.26c-4.82-1.22-6.81-0.47-9.07,3.84
		c-1.42,2.71-2.57,5.58-3.85,8.37c-0.99,2.33-2.68,4.06-4.81,5.38c-1.35,0.49-2.65,0.21-3.95-0.23c-2.18-0.82-3.98-2.21-5.72-3.71
		c-0.99-0.95-2.02-1.84-3.11-2.68c-5.73-4.4-8.12-4.39-13.79,0.26c-2.11,1.74-4.03,3.7-6.45,5.06c-4.11,2.31-6.97,1.72-9.52-2.26
		c-1.94-3.04-3.32-6.4-4.96-9.61c-2.51-4.89-4.16-5.66-9.6-4.37c-3.03,0.72-6.04,1.55-9.12,2.03c-5.16,0.8-7.9-1.4-8.14-6.56
		c-0.15-3.23,0.15-6.48-0.14-9.69c-0.32-3.55-0.95-7.02-5.13-8.23c-2.97-0.96-6.04-1.56-9.07-2.3c-7.09-1.71-8.95-5.35-6.29-12.08
		c1.15-2.9,2.81-5.56,3.97-8.46c1.3-3.25,0.87-5.95-1.81-8.45c-2.83-2.64-6-4.88-8.6-7.77c-3.55-3.95-3.57-6.47-0.05-10.39
		c2.68-2.99,5.99-5.27,8.85-8.05c2.38-2.3,2.78-4.78,1.75-7.81c-3.18-9.4-3.77-9.78-13.25-7.67c-8.47,1.88-9.75,4.49-6.05,12.27
		c1.02,2.14,2.16,4.21,3.05,6.42c1.57,3.91,0.81,7.23-2.19,10.23c-2.74,2.74-5.99,4.89-8.59,7.79c-2.88,3.22-2.88,4.74,0.06,8
		c2.6,2.89,5.77,5.13,8.6,7.77c3.22,3,3.62,6.32,2.12,10.18c-1.13,2.91-2.8,5.57-3.97,8.46c-2.21,5.49-1.11,7.8,4.52,9.44
		c3,0.87,6.08,1.42,9.05,2.38c4.69,1.52,6.21,3.57,6.32,8.48c0.07,3.24-0.15,6.49,0.09,9.72c0.4,5.46,2.34,6.98,7.75,6.3
		c1.48-0.19,2.98-0.57,4.26,0.63c0.77,1.48,0.76,2.95-0.02,4.43c-0.32,0.36-0.7,0.61-1.15,0.79c-1.7,0.54-3.46,0.41-5.21,0.41
		c-18.73,0.01-37.47,0.04-56.2-0.01c-6.01-0.01-11.94-0.91-17.85-1.97c-1.35-0.24-2.71-0.52-3.8-1.48
		c-0.36-0.35-0.63-0.76-0.81-1.23c-0.63-1.94-0.47-3.94-0.47-5.93c-0.01-54.52-0.01-109.05,0-163.57c0-1.98-0.19-3.99,0.52-5.92
		c0.21-0.46,0.54-0.84,0.96-1.12c1.63-0.83,3.4-0.71,5.14-0.71c24.37-0.02,48.73-0.02,73.1,0c1.62,0,3.26-0.09,4.82,0.51
		c0.46,0.2,0.83,0.52,1.11,0.94c0.61,1.13,0.69,2.38,0.69,3.62c0.05,10.94,0.05,21.88,0,32.82c-0.01,1-0.09,1.99-0.43,2.93
		c-0.9,1.92-2.58,1.51-4.17,1.36c-5.98-0.55-7.91,1.08-8.25,6.99c-0.06,1.11-0.01,2.22-0.02,3.33c-0.02,2.11,0.9,2.92,3.02,2.37
		c2.87-0.75,5.77-1.37,8.61-2.27c3.17-1.09,4.28-3.46,4.28-6.62c-0.01-2.72-0.08-5.44,0.05-8.15c0.4-8.79,4.11-11.44,12.59-9.07
		c2.25,1.01,4.66,1.46,7.08,1.87c2.58,0.44,4.88,0.01,6.6-2.16c1.97-3.06,3.24-6.46,4.87-9.69c0.12-0.22,0.25-0.43,0.38-0.64
		c3.97-6.54,6.06-7.02,12.5-2.89c2.08,1.64,4.12,3.34,6.24,4.95c4.73,3.39,6.64,3.33,11.29-0.34c2.62-1.91,4.85-4.32,7.63-6.03
		c3.72-2.29,5.9-1.96,8.91,1.24c1.3,1.39,2.24,2.99,2.94,4.74c0.61,1.5,1.23,3,1.95,4.45c3.14,6.26,4.78,7.04,11.52,5.56
		c3.16-0.7,6.23-1.9,9.53-1.84C373.05,198.7,375.31,199.43,375.94,202.49z"/>
	<path class="st1" d="M178.14,375.28c-30.71,0.03-61.41,0.22-92.12,0.02c-11.73-0.07-21.82-11.17-21.84-23.28
		c-0.04-36.87-0.01-73.75-0.02-110.62c-0.01-31.14-0.04-62.29-0.06-93.43c1.15-1.23,2.7-1.21,4.18-1.21
		c34.52,0.01,69.04-0.18,103.57,0.08c2.22,0.03,4.53-0.46,6.52,1.01c0.86,1.16,0.92,2.53,0.93,3.89c0.06,5.43,0.05,10.86,0,16.29
		c-0.01,1.37-0.1,2.73-1.03,3.85l-0.29,0.01c-1.58,1.42-3.53,1.02-5.36,1.03c-17.35,0.03-34.7,0-52.05,0.02
		c-16.03,0.02-25.34,9.33-25.36,25.34c-0.01,16.07-0.35,32.15,0.08,48.21c0.61,22.8,7.75,43.49,21.76,61.68
		c14.8,19.23,33.94,32.04,57.36,38.46c1.33,0.37,2.65,0.74,3.6,1.85l0.29,0.05c0.78,1.46,1.03,3.03,1.03,4.67
		c0,5.84,0.03,11.67-0.02,17.51C179.29,372.32,179.41,373.99,178.14,375.28z"/>
	<path class="st2" d="M172.17,147.92c-36.02,0.02-72.04,0.03-108.07,0.05c-6-0.01-11.99,0.02-17.99-0.04
		c-6.75-0.07-11.89-5.1-11.92-11.78c-0.05-16.08-0.05-32.17,0-48.25c0.02-6.32,5.05-11.71,11.17-11.74
		c15.99-0.07,31.98,0.04,47.97,0.08c-0.17,1.67-1.66,1.66-2.74,2.09c-9.47,3.77-14.69,12.55-13,21.92
		c1.82,10.05,9.44,16.55,20.08,16.62c22.86,0.15,45.72,0.02,68.58,0.08c2.17,0.01,4.56-0.56,6.33,1.43
		c0.85,1.62,0.73,3.39,0.74,5.13c0.02,6.48,0.03,12.96,0,19.44C173.3,144.68,173.44,146.47,172.17,147.92z"/>
	<path class="st3" d="M172.08,118.01c-24.72,0-49.44,0.01-74.16,0c-9.9,0-18.25-5.86-20.76-14.54c-2.87-9.92,0.6-18.91,9.3-24.55
		c2.15-1.39,4.7-1.51,6.87-2.69c0.6-0.24,1.2-0.49,1.8-0.73c0.92-0.91,2.08-0.67,3.18-0.67c22.57,0.15,45.14,0.01,67.7,0.08
		c2.09,0.01,4.27-0.31,6.19,0.94c0.98,1.11,1.07,2.48,1.08,3.85c0.07,11.51,0.07,23.03,0,34.54c-0.01,1.12-0.11,2.23-0.69,3.23
		C172.43,117.66,172.25,117.84,172.08,118.01z"/>
	<path class="st1" d="M337.74,350.88c1.24,0.18,2.49,0.36,3.73,0.54c2.92-1.62,6.11-0.89,9.18-0.94c4.45-0.06,8.62-0.94,12.57-3.07
		c3.74-2.02,6.72-4.71,8.6-8.54c0.72-1.46,1.62-2.8,2.72-4c0.49-1.17,0.98-2.35,1.47-3.52c0.01,7.23,0.15,14.46,0.01,21.69
		c-0.22,11.29-10.49,22.17-21.75,22.25c-30.73,0.21-61.46,0.02-92.18-0.02c-0.22-0.45-0.14,0.2-0.23-0.28
		c-1.52-7.85-1.66-15.7,0.09-23.53l0.29-0.01c2.97-1.91,6.28-0.64,9.42-1.03c1.05-0.13,2.72,0.45,2.95-0.78
		c0.29-1.5-1.29-2.28-2.58-2.71c-2.17-0.73-4.41-0.42-6.63-0.22c-1.47,0.13-3.01,0.51-3.96-1.16c-0.98-3.41-0.47-6.89-0.52-10.33
		c-0.08-6.42-0.06-12.85,0-19.28c0.02-1.7-0.21-3.51,1.2-4.88c4.3,1.35,5.7,3.42,5.9,9.05c0.12,3.35-0.05,6.71,0.07,10.07
		c0.15,4.3,2.71,6.26,6.96,5.37c3.39-0.71,6.76-1.55,10.14-2.34c4.91-1.15,6.99-0.21,9.34,4.35c1.59,3.09,3.01,6.27,4.64,9.35
		c2.55,4.82,5.14,5.54,9.52,2.48c2.94-2.06,5.57-4.56,8.49-6.65c3.62-2.6,6.41-2.59,9.86,0.05c1.95,1.49,4.24,2.66,5.57,4.87
		C332.65,351.37,335.43,350.75,337.74,350.88z"/>
	<path class="st3" d="M344.53,75.73c1.48,0.13,2.96,0.36,4.44,0.37c14.6,0.03,29.19,0,43.79,0.02c8.4,0.01,13.25,4.83,13.27,13.19
		c0.01,6.6-0.07,13.19-0.11,19.79c-1.4,6.81-5.37,9.99-13.04,10.04c-16.93,0.11-33.87,0.03-50.8,0.04c-3.24,0-6.48,0.04-9.71-0.02
		c-1.6-0.03-3.27,0.08-4.6-1.12c-0.96-1.43-0.89-3.07-0.89-4.68c-0.03-10.8-0.03-21.6,0-32.4c0-1.61-0.08-3.24,0.81-4.71
		c0.89-1.03,2.14-1.27,3.36-1.21C335.54,75.26,340.11,74.08,344.53,75.73z"/>
	<path class="st4" d="M248.7,58.84c0.32,0.49,0.64,0.98,1.21,1.85c1.1-7.83,2.11-15.37,4.67-22.57c3.31-9.34,7.63-18.02,15.73-24.26
		c1.59,1.66,1.02,3.75,1.09,5.69c0.09,2.61-0.03,5.23,0.95,7.74c1.85,4.76,5.21,6.56,10.07,5.09c9.82-2.97,19.79-5.27,30-6.34
		c4.79-0.5,9.67-1.26,14.4,0.58c1.13,2.4,1.24,4.97,1.31,7.55c-0.41,0.55-0.99,0.78-1.62,0.92c-2.65,0.37-5.37-0.23-7.99,0.55
		c-0.99,0.23-2,0.31-3.01,0.33c-1.37-0.03-2.73-0.04-4.04,0.46c-9.45,1.9-18.89,3.85-27.79,7.73c-11.35,4.23-21.35,10.67-30.51,18.5
		c-1.44,1.23-2.11,2.69-2.09,4.56c0.02,1.99,0.06,3.98-0.04,5.97c-0.08,1.49-0.08,3.06-1.89,3.7c-0.48,0.16-0.97,0.29-1.47,0.3
		c-18.46,0.17-36.93,0.24-55.39-0.03c-0.37-0.01-0.74-0.13-1.09-0.22c-2.33-0.84-2.27-2.97-1.97-4.68
		c1.13-6.49-2.18-10.33-7.13-13.76c-5.72-3.96-11.44-7.85-17.73-10.84c-11.37-5.32-23.29-8.88-35.61-11.2
		c-1.28-0.56-2.64-0.53-4-0.51c-1.01-0.01-2.02-0.1-3.01-0.31c-2.63-0.81-5.36-0.18-8.02-0.55c-0.65-0.13-1.23-0.38-1.63-0.93
		c0.14-2.01-0.06-4.07,0.9-5.96c2.14-2.79,5.33-2.36,8.23-2.5c13.9-0.65,27.29,2.32,40.52,6.09c7.89,2.24,11.36,0.27,13.02-7.82
		c0.25-1.21-0.17-2.91,1.79-3.21c7.73,9.74,10.88,21.23,12.78,33.2c0.27,1.71,0.47,3.44,0.71,5.16c0.06,0.41-0.05,1.12,0.66,0.87
		c0.37-0.13,0.56-0.75,0.83-1.15c1.27-0.4,2.18,0.36,3.01,1.07c3.04,2.59,6.57,3.2,10.45,3.16c9.58-0.1,19.17-0.13,28.75,0.01
		c4.62,0.07,8.94-0.35,12.54-3.62C246.92,58.9,247.75,58.49,248.7,58.84z"/>
	<path class="st2" d="M328.19,118c21.17,0.01,42.35-0.13,63.52,0.1c6.99,0.08,11.64-2.59,14.22-9c0.04,9.19,0.17,18.38,0.08,27.56
		c-0.06,6.16-5.32,11.18-11.59,11.26c-6.1,0.08-12.19,0.03-18.29,0.04c-1.46,1.23-3.23,1.18-4.98,1.18
		c-12.84,0.02-25.67,0.03-38.51-0.01c-1.61,0-3.26,0.05-4.68-0.96c-0.86-1.01-1.03-2.24-1.05-3.48c-0.11-7.66-0.1-15.32-0.01-22.98
		C326.92,120.37,326.99,118.97,328.19,118z"/>
	<path class="st0" d="M250.05,76.04c0.02-1.98,0.34-4.02-0.02-5.93c-0.88-4.63,1.21-7.62,4.7-10.25c8.81-6.66,18-12.62,28.37-16.62
		c1.13,1.91-0.09,3.61-0.53,5.35c-1.43,5.68,0.49,8.4,6.37,8.43c18.67,0.09,37.35,0.03,56.02,0.04c3.56,0,6.56-1.17,9.05-3.71
		c0.85-0.87,1.61-1.96,3.06-1.87c3.61,10.99-1.56,20.99-12.55,24.26c-5.45,0.83-10.94,0.16-16.41,0.4
		c-3.89,2.17-8.1,0.82-12.17,1.09c-15.93,0.16-31.85,0.18-47.78,0c-4.68,0.19-9.35,0.09-14.03,0.05
		C252.69,77.27,251.16,77.31,250.05,76.04z"/>
	<path class="st0" d="M164.63,46.93c7.92,3.19,14.5,8.45,21.37,13.33c3.96,2.81,4.57,6.3,4.15,10.56c-0.17,1.72,0,3.48,0.02,5.22
		c-0.58,0.74-1.41,1.11-2.29,1.09c-5.28-0.12-10.66,1.28-15.81-0.94c-23.68-0.03-47.36-0.06-71.04-0.06c-2,0-3.97-0.07-5.89-0.62
		C79.73,71.45,78.9,52.07,87.35,43.9c2,0.18,1.68,1.89,1.95,3.1c1.54,6.83,5.28,9.99,12.38,10.02c17.99,0.07,35.98,0.03,53.96,0.02
		c7.29-0.01,8.15-0.86,8.32-8.04C163.98,48.23,164.05,47.5,164.63,46.93z"/>
	<path class="st4" d="M261.95,351.46c0.04,7.94,0.09,15.88,0.13,23.82c-27.98,0-55.97,0-83.95,0c0.05-8.92,0.1-17.83,0.16-26.74
		c6.46,1.87,13.12,2.77,19.77,2.84C219.35,351.59,240.65,351.46,261.95,351.46z"/>
	<path class="st5" d="M164.63,46.93c0.16,0.85,0.3,1.7,0.48,2.55c1.22,5.5-1.3,8.67-6.98,8.68c-19.11,0.02-38.22,0.02-57.33,0
		c-7.3-0.01-12.08-4.53-12.64-11.9c-0.07-0.87,0.05-1.77-0.81-2.35c6.67-7.23,15.49-9.02,24.74-9.72c0.53,0.03,1.06,0.06,1.59,0.08
		c2.69,0.93,5.56-0.27,8.25,0.69c0.99,0.02,1.99,0.03,2.98,0.05c1.14,0.85,2.62-0.14,3.76,0.7
		C141.26,37.55,153.25,41.25,164.63,46.93z"/>
	<path class="st5" d="M357.09,51.48c-3.49,5.28-8.4,6.89-14.67,6.79c-17.82-0.3-35.64-0.1-53.47-0.11c-7.15,0-9.55-3.4-7.3-10.32
		c0.5-1.53,0.98-3.07,1.47-4.6c9.17-3.68,18.61-6.34,28.44-7.53c1.13-0.84,2.6,0.13,3.74-0.69c1-0.02,1.99-0.04,2.99-0.06
		c2.69-0.95,5.56,0.24,8.25-0.69c0.53-0.03,1.06-0.06,1.6-0.09c6.51,0.35,12.81,1.59,18.58,4.78
		C351.78,41.78,355.54,45.72,357.09,51.48z"/>
	<path class="st0" d="M176.56,20.78c-1.3,2.31-0.64,5.04-1.76,7.47c-2.38,5.18-5.93,6.86-11.44,5.2
		c-13.82-4.16-27.82-7.26-42.39-6.73c-2.75,0.1-5.39,0.62-7.98,1.5c3.28-16.56,14.56-24.93,32.58-23.81
		C158.29,5.19,168.84,10.4,176.56,20.78z"/>
	<path class="st0" d="M326.81,26.63c-15.58-0.49-30.57,2.65-45.36,7.22c-5.57,1.72-10.8-3.22-11.09-10.28
		c-0.13-3.23-0.05-6.47-0.06-9.7c10.99-9.04,23.59-11.51,37.17-8.28C318.41,8.18,324.36,15.96,326.81,26.63z"/>
	<path class="st1" d="M328.18,147.92c15.98,0.02,31.96,0.04,47.94,0.05c-0.06,7.96-0.13,15.93-0.19,23.89
		c-1.4,1.38-3.2,1.22-4.92,1.22c-12.8,0.04-25.6,0.04-38.4,0c-1.61,0-3.25,0.05-4.66-0.97c-0.85-1.01-1.02-2.24-1.04-3.47
		c-0.1-5.79-0.12-11.59,0.01-17.38C326.96,150.03,327.09,148.78,328.18,147.92z"/>
	<path class="st2" d="M328.18,171.92c15.92-0.02,31.83-0.04,47.75-0.06c0,10.21,0.01,20.42,0.01,30.63
		c-2.07-3.43-5.26-3.26-8.55-2.59c-3.03,0.62-6.09,1.19-9.05,2.09c-4.2,1.28-6.73-0.75-8.54-4.05c-1.66-3.04-2.85-6.33-4.5-9.38
		c-2.91-5.38-5.51-5.95-10.42-2.46c-2.32,1.65-4.52,3.46-6.77,5.19c-0.84-0.69-1.09-1.66-1.13-2.65c-0.2-4.7-0.21-9.4,0.01-14.1
		C327.05,173.55,327.3,172.57,328.18,171.92z"/>
	<path class="st0" d="M248.7,58.84c-4.35,4.6-9.73,5.67-15.9,5.39c-8.44-0.38-16.92-0.37-25.36,0c-6.16,0.27-11.55-0.77-15.9-5.38
		c2.28-4.62,6.13-6.66,11.16-6.67c11.6-0.02,23.21-0.02,34.81,0C242.54,52.19,246.39,54.25,248.7,58.84z"/>
	<path class="st2" d="M178,348.48c-16.99-3.71-31.98-11.32-45.33-22.45c-12.16-10.14-21.59-22.32-28.29-36.57
		c-5.15-10.96-8.55-22.45-9.51-34.61c-1.59-20.14-0.62-40.31-0.59-60.46c0.02-12.43,11.13-22.45,23.77-22.48
		c19.97-0.05,39.95-0.01,59.92-0.01c0.05,0.99,0.14,1.99,0.14,2.98c0.01,56.88,0.01,113.75,0,170.63
		C178.12,346.49,178.04,347.49,178,348.48z"/>
	<path class="st6" d="M364.81,223.62c0,1.25,0.03,2.49,0,3.74c-0.08,3.65,1.63,5.84,5.22,6.65c2.78,0.63,5.57,1.29,8.29,2.15
		c3.18,1.01,4.33,3.2,2.99,6.37c-1.26,2.98-2.62,5.91-3.91,8.87c-1.31,3-0.3,5.3,2.18,7.16c1.59,1.19,3.18,2.39,4.74,3.62
		c4.79,3.77,4.83,7.09,0.11,10.86c-1.65,1.32-3.37,2.54-5.03,3.85c-2.3,1.81-3.28,4.03-2.05,6.89c1.33,3.08,2.73,6.13,4.01,9.23
		c1.26,3.04,0.05,5.12-2.9,6.11c-2.58,0.87-5.26,1.46-7.91,2.13c-4.51,1.15-5.69,2.62-5.73,7.31c-0.02,2.49,0.06,4.99-0.02,7.48
		c-0.14,4.1-1.91,5.54-5.97,4.86c-2.81-0.47-5.6-1.12-8.41-1.61c-3.44-0.6-5.64,0.89-7.16,3.99c-1.2,2.45-2.05,5.04-3.48,7.42
		c-1.88,3.13-4.04,3.44-6.78,1.5c-2.13-1.5-4.16-3.15-6.17-4.81c-3.58-2.97-5.96-2.93-9.61,0.08c-2.1,1.74-4.27,3.41-6.51,4.98
		c-2.8,1.97-4.97,0.91-6.49-1.78c-0.97-1.73-1.74-3.58-2.48-5.42c-2.37-5.86-4.51-6.97-10.67-5.49c-2.05,0.49-4.12,0.96-6.2,1.28
		c-3.37,0.52-5.29-0.95-5.48-4.35c-0.17-2.98-0.06-5.98-0.05-8.97c0.01-3.5-1.7-5.58-5.09-6.38c-2.66-0.63-5.34-1.18-7.94-2.01
		c-3.88-1.25-4.83-3.33-3.29-7.12c0.94-2.3,2.25-4.45,3.23-6.74c1.97-4.62,1.36-6.55-2.69-9.6c-1.89-1.42-3.83-2.8-5.49-4.47
		c-2.64-2.65-2.66-4.81-0.02-7.44c1.75-1.74,3.83-3.16,5.8-4.66c3.55-2.7,4.25-4.9,2.56-9.05c-1.08-2.65-2.45-5.17-3.57-7.81
		c-1.37-3.22-0.08-5.33,3.09-6.31c2.72-0.84,5.51-1.48,8.29-2.14c3.39-0.8,5.13-2.85,5.12-6.35c-0.01-2.87-0.09-5.74,0.03-8.6
		c0.16-3.86,1.97-5.13,5.84-4.72c3.23,0.34,6.22,1.69,9.52,1.79c2.75,0.09,4.56-0.96,5.7-3.33c1.13-2.35,2.09-4.79,3.27-7.12
		c2.2-4.35,4.31-4.89,8.3-2.1c1.83,1.28,3.5,2.79,5.21,4.23c3.74,3.16,6.03,3.12,9.88-0.11c1.81-1.52,3.62-3.05,5.55-4.4
		c3.44-2.41,5.46-1.94,7.52,1.8c1.02,1.85,1.77,3.84,2.62,5.77c2.21,5.04,4.32,6.1,9.73,4.9c2.06-0.46,4.11-0.97,6.19-1.32
		c4.28-0.72,5.98,0.71,6.12,5.06C364.85,220.88,364.81,222.25,364.81,223.62z"/>
	<path class="st7" d="M262.12,311.07c0.03,11.73,0.06,23.46,0.09,35.19c0.15,0.31,0.08,0.53-0.25,0.65
		c-1.11,0.11-2.25,0.13-3.34,0.36c-6.25,1.3-8.97-0.73-9.22-7.13c-0.13-3.49-0.08-6.98-0.02-10.47c0.06-3.47-1.53-5.7-4.86-6.63
		c-3.83-1.07-7.74-1.89-11.52-3.09c-4.54-1.44-5.68-3.74-4.17-8.28c0.78-2.35,1.93-4.59,3.03-6.81c4.01-8.1,3.56-10.45-3.58-15.77
		c-1.92-1.43-3.63-3.03-5.3-4.7c-3.76-3.75-3.82-5.76-0.1-9.39c2.67-2.6,5.6-4.93,8.3-7.51c3.74-3.59,4.1-5.5,1.99-10.32
		c-1.25-2.85-2.86-5.55-3.98-8.45c-2.14-5.54-0.97-8.1,4.63-9.87c3.78-1.19,7.71-1.91,11.56-2.91c0.87-0.22,1.35-0.17,1.74,0.73
		c1.6,3.65,3.39,7.21,4.85,10.91c1.04,2.64,0.5,5.06-1.82,7.05c-3.21,2.75-6.37,5.58-9.39,8.53c-3.56,3.48-3.54,5.57,0.1,9.12
		c3.03,2.95,6.19,5.77,9.39,8.53c2.34,2.01,2.64,4.42,1.69,7.08c-0.75,2.1-1.75,4.12-2.67,6.16c-0.67,1.48-1.5,2.88-2.07,4.39
		c-2.23,5.97-0.4,9.06,5.92,10.38C256.13,309.45,259.11,310.31,262.12,311.07z"/>
	<path class="st4" d="M178.27,171.88c-0.06-7.97-0.12-15.94-0.18-23.92c1.39-1.41,3.21-1.22,4.93-1.22
		c24.82-0.03,49.64-0.04,74.46,0c1.61,0,3.26-0.04,4.69,0.95c0.8,0.88,1.02,1.97,1.05,3.09c0.17,5.92,0.14,11.85,0.02,17.77
		c-0.03,1.23-0.16,2.49-1.29,3.33C234.06,171.88,206.16,171.88,178.27,171.88z"/>
	<path class="st1" d="M261.95,171.88c0.06-7.97,0.12-15.94,0.18-23.91c1.86-1.68,4.13-1.01,6.27-1.12
		c14.6-0.24,29.21-0.08,43.81-0.08c1.37,0,2.76,0.07,3.94,0.92c0.33,0.38,0.69,0.8,0.72,1.29c0.46,7.55,1.03,15.1-0.31,22.62
		c-0.15,0.2-0.3,0.52-0.48,0.54c-5.01,0.47-5.15,3.87-4.95,7.76c0.12,2.28,0.69,4.77-1.05,6.81c-6.57-4.07-7.27-3.89-11.97,3.12
		c-2.11-2.78-1.1-6-1.17-9.03c-0.2-8.19,0.72-7.71-7.68-7.73c-7.36-0.01-14.72,0.03-22.07-0.02c-1.72-0.01-3.53,0.21-4.95-1.16
		L261.95,171.88z"/>
	<path class="st4" d="M315.97,171.92c0-8,0-16,0-24.01c-0.97-1.12-1.06-2.49-1.06-3.86c-0.01-8.68-0.14-17.37,0.06-26.05
		c-0.22-12.55-0.07-25.1-0.07-37.65c0-1.49,0.04-3,1.13-4.22c4.04,0,8.07,0,12.1,0c0.02,13.96,0.04,27.91,0.07,41.87
		c0,9.97-0.01,19.94-0.01,29.91c0,8,0,16,0,24c-0.02,6.46-0.04,12.91-0.06,19.37c-4.22,4.14-7.92,4.13-12.09-0.01
		C314.18,184.83,314.26,178.38,315.97,171.92z"/>
	<path class="st2" d="M262.24,171.89c10.72,0,21.45,0.11,32.16-0.07c3.04-0.05,3.86,0.94,3.74,3.83c-0.2,4.72-0.03,9.45-0.02,14.18
		c-1.38,3.31-2.74,6.63-4.66,9.68c-4.6-2.56-9.03-3.21-13.07,1.09c-0.21,0.22-0.71,0.02-1.03-0.2c-10.32-1.79-12-0.34-11.92,10.24
		c0.02,2.35,0.01,4.71-0.02,7.06c-0.04,3.55-1.64,5.87-5.27,6.56c-1.93-3.93-1.69-7.9-0.19-11.88c0.05-12.01,0.09-24.02,0.15-36.03
		C262.11,174.86,262.19,173.37,262.24,171.89z"/>
	<path class="st2" d="M374.54,334.88c-2.78,9.62-11.7,16.41-21.86,16.57c-3.74,0.06-7.48-0.01-11.22-0.02c1.34-1.7,3.32-2.9,4-5.11
		c1.84-0.79,3.64-0.04,5.45,0.17c3.87,0.45,5.27-0.67,6.4-4.43c0.85-2.82-0.41-5.96,1.47-8.58c2.86,0.6,5.76,1.08,8.59,1.83
		C369.86,335.96,372.2,335.88,374.54,334.88z"/>
	<path class="st8" d="M261.95,212.37c0.06,3.96,0.13,7.92,0.19,11.88c-3.45,0.94-6.89,1.89-10.34,2.81
		c-1.49,0.4-2.43-0.03-2.42-1.76c0.03-2.47-0.21-4.98,0.1-7.41c0.68-5.29,3.55-7.2,8.84-6.21
		C259.53,211.9,260.74,212.13,261.95,212.37z"/>
	<path class="st1" d="M358.79,333.48c-0.14,3.17,0.29,6.35-0.64,9.51c-1.1,3.75-2.76,5.16-6.61,4.68c-2.05-0.25-4.05-0.89-6.07-1.35
		c1.64-3.47,2.8-7.17,5-10.39C352.58,332.82,355.32,331.92,358.79,333.48z"/>
	<path class="st2" d="M315.97,171.92c0.02,6.45,0.05,12.9,0.07,19.35c-2.29-1.12-3.97-3.04-5.95-4.56c0-3.58,0.21-7.18-0.07-10.74
		c-0.26-3.25,0.77-4.65,4.1-4.1C314.72,171.98,315.35,171.91,315.97,171.92z"/>
	<path class="st2" d="M261.95,346.91c0.07-0.22,0.16-0.44,0.25-0.65c2.77-0.71,5.58-0.95,8.43-0.8c0.98,0.05,2.04-0.12,2.83,0.61
		c1.43,1.32,3.69,2.63,3.13,4.63c-0.45,1.61-2.83,0.67-4.34,0.73c-3.34,0.12-6.68,0.03-10.02,0.03
		C262.14,349.94,262.05,348.42,261.95,346.91z"/>
	<path class="st1" d="M279.35,200.39c1.41-0.06,2.25-1.05,3-2.01c2.54-3.24,5.28-3.23,8.32-0.73c0.85,0.7,1.85,1.24,2.78,1.85
		c-1.65,3.05-4.53,3.38-7.4,2.83C283.8,201.9,281.32,201.91,279.35,200.39z"/>
	<path class="st2" d="M337.74,350.88c-0.79,0.8-1.81,0.55-2.76,0.57c-4.21,0.09-4.23,0.05-2.36-3.81
		C334.32,348.73,336.03,349.81,337.74,350.88z"/>
	<path class="st0" d="M268.06,147.92c-1.97,0.01-3.95,0.03-5.92,0.04c-28.01,0-56.03,0-84.04,0c-1.97-0.01-3.95-0.03-5.92-0.04
		c-0.03-9.97-0.06-19.94-0.09-29.91c0,0,0.12,0.03,0.12,0.03c1.41-1.35,3.22-1.22,4.95-1.23c28.73-0.03,57.46-0.03,86.19,0
		c1.37,0,2.75-0.01,4.07,0.5c0.46,0.21,0.84,0.52,1.14,0.94c0.84,1.61,0.72,3.36,0.73,5.09c0.02,6.56,0.03,13.12,0,19.67
		C269.27,144.74,269.37,146.51,268.06,147.92z"/>
	<path class="st6" d="M268.02,118.04c-31.94,0-63.88,0-95.81,0.01c-0.04-13.95-0.09-27.9-0.13-41.85c6.03-0.05,12.06-0.1,18.1-0.16
		c19.96,0,39.93,0,59.89,0c6.03,0.05,12.06,0.11,18.1,0.16c1.04,1.08,1.11,2.46,1.12,3.83c0.06,11.42,0.08,22.84-0.01,34.26
		C269.25,115.64,269.2,117.04,268.02,118.04z"/>
	<path class="st9" d="M121.94,34.95c-2.74-0.34-5.61,0.81-8.25-0.69C116.43,34.54,119.3,33.44,121.94,34.95z"/>
	<path class="st10" d="M326.53,34.27c-2.64,1.49-5.51,0.34-8.25,0.69C320.92,33.45,323.78,34.53,326.53,34.27z"/>
	<path class="st11" d="M315.29,35.01c-1.07,1.2-2.48,0.53-3.74,0.69C312.62,34.52,314.01,35.09,315.29,35.01z"/>
	<path class="st12" d="M128.68,35.7c-1.27-0.15-2.69,0.51-3.76-0.7C126.2,35.08,127.6,34.51,128.68,35.7z"/>
	<path class="st3" d="M268.02,118.04c0.04-13.95,0.09-27.9,0.13-41.85c15.96-0.02,31.91-0.04,47.87-0.06
		c-0.02,13.95-0.04,27.91-0.07,41.86c-1.4,1.37-3.2,1.2-4.91,1.21c-12.66,0.04-25.31,0.03-37.97,0c-1.72,0-3.51,0.11-4.93-1.2
		L268.02,118.04z"/>
	<path class="st13" d="M358.01,237.79c-0.21,2.08-1.12,3.64-2.49,5.01c-19.51,19.45-38.99,38.92-58.52,58.35
		c-3.08,3.06-6.72,3.19-9.24,0.56c-2.42-2.53-2.24-6.02,0.68-8.94c19.56-19.57,39.16-39.11,58.75-58.66c2-2,4.25-3.01,7.09-1.75
		C356.71,233.44,357.79,235.38,358.01,237.79z"/>
	<path class="st13" d="M322.06,237.76c0.03,9.72-8.08,17.88-17.8,17.91c-9.97,0.03-18.16-8.06-18.15-17.96
		c0-9.75,8.05-17.85,17.81-17.92C313.86,219.73,322.03,227.81,322.06,237.76z"/>
	<path class="st13" d="M340.15,279.65c9.91,0.04,17.97,8.24,17.89,18.21c-0.07,9.67-8.32,17.73-18.05,17.66
		c-9.95-0.07-18.01-8.28-17.9-18.21C322.2,287.61,330.37,279.62,340.15,279.65z"/>
	<path class="st2" d="M268.14,118.01c15.94-0.01,31.88-0.01,47.82-0.02c0,9.97,0.01,19.94,0.01,29.91
		c-15.97,0-31.94,0.01-47.91,0.01C268.08,137.95,268.11,127.98,268.14,118.01z"/>
	<path class="st14" d="M310.06,237.78c-0.02,3.26-2.66,5.89-5.93,5.92c-3.26,0.03-5.95-2.57-6.02-5.83
		c-0.08-3.41,2.71-6.19,6.12-6.1C307.48,231.85,310.08,234.52,310.06,237.78z"/>
	<path class="st14" d="M339.97,291.62c3.27-0.05,5.97,2.52,6.07,5.78c0.11,3.39-2.66,6.2-6.07,6.15c-3.26-0.05-5.88-2.71-5.88-5.97
		C334.09,294.32,336.7,291.67,339.97,291.62z"/>
</g>
</svg>
